<svg width="44" height="44" viewBox="0 0 44 44" fill="none" xmlns="http://www.w3.org/2000/svg">
<g id="account_circle_24px">
<path id="icon/action/account_circle_24px" fill-rule="evenodd" clip-rule="evenodd" d="M22 3.66669C11.88 3.66669 3.66666 11.88 3.66666 22C3.66666 32.12 11.88 40.3334 22 40.3334C32.12 40.3334 40.3333 32.12 40.3333 22C40.3333 11.88 32.12 3.66669 22 3.66669ZM12.9617 33.5134C13.75 31.8634 18.5533 30.25 22 30.25C25.4467 30.25 30.2683 31.8634 31.0383 33.5134C28.545 35.4934 25.41 36.6667 22 36.6667C18.59 36.6667 15.455 35.4934 12.9617 33.5134ZM22 26.5834C24.6767 26.5834 31.0383 27.665 33.66 30.855C35.53 28.3984 36.6667 25.3367 36.6667 22C36.6667 13.915 30.085 7.33335 22 7.33335C13.915 7.33335 7.33332 13.915 7.33332 22C7.33332 25.3367 8.46999 28.3984 10.34 30.855C12.9617 27.665 19.3233 26.5834 22 26.5834ZM22 11C18.4433 11 15.5833 13.86 15.5833 17.4167C15.5833 20.9734 18.4433 23.8334 22 23.8334C25.5567 23.8334 28.4167 20.9734 28.4167 17.4167C28.4167 13.86 25.5567 11 22 11ZM19.25 17.4167C19.25 18.9384 20.4783 20.1667 22 20.1667C23.5217 20.1667 24.75 18.9384 24.75 17.4167C24.75 15.895 23.5217 14.6667 22 14.6667C20.4783 14.6667 19.25 15.895 19.25 17.4167Z" fill="#000000"/>
</g>
</svg>
